<svg xmlns="http://www.w3.org/2000/svg" viewBox="0 0 258.43 159.94"><g id="图层_2" data-name="图层 2"><g id="图层_1-2" data-name="图层 1"><path d="M159.41,159.94c-9.28-1.3-18.56-2.62-27.85-3.9a38.2,38.2,0,0,0-4.9-.37c-12.86,0-25.72-.13-38.59,0-10.85.07-21.55.26-32.43,2.43-26.7,5.31-47.47-9.79-52.89-37C0,107.16.12,93.59,5.08,80c2.45-6.74,2.66-14.32,3.59-21.56.13-1-1.21-2.51-2.24-3.32a16.4,16.4,0,0,1,.65-26.52c4.08-2.82,8.71-3.87,13-1.05,3.25,2.13,5,1,7.11-1.34A76.11,76.11,0,0,1,66.59,2.64c27.85-6.76,52.67-.45,74.42,18,2.49,2.11,4.19,2.91,7.37,1.32,5.73-2.88,10.44-1.48,14.25,3.44,3.3,4.28,4.83,4.39,8.17.29a19.63,19.63,0,0,1,15.65-7.42c9.32-.16,15.78,5.77,15.9,15.06a6.79,6.79,0,0,0,3.32,6.18C220.38,50,229.15,64.25,231.26,82.33c.38,3.28,1.78,5,4.43,7.31,7.47,6.48,17.59,10.25,21.4,20.76,3.89,10.76-.85,21.93-12,23.52-13.22,1.88-25.94,4.63-37.8,10.9-1.67.89-3.72,1-5.59,1.54-3.84,1-7.31,1.95-9.85,5.9-3.25,5-9.35,5.53-14.84,6.08-5.79.57-11.64.58-17.46.83ZM120,151c-1.74-1.6-2.72-2.4-3.58-3.32-3.36-3.58-7.17-6.87-9.93-10.88-9.76-14.16-13.29-30.3-13.1-47.18.08-7.88,1.58-15.81,6.56-22.46,2.13-2.84,4.68-5.28,8.64-4.37s5.23,4.2,5.84,7.7c.78,4.41,1.31,8.87,2,13.3,2.58,16.9,16.39,32.7,34.77,32.93a206.08,206.08,0,0,1,24.55,1.92c10.45,1.4,17.48,8.48,19.64,18.8.38,1.83.8,3.65,1.26,5.74,14.5-3.37,27.33-9.36,37.5-19.71C245,112.34,246.55,97.32,228,90.27c-7-2.68-8.27-6.35-6.54-13.89.82-3.62,2-8.21.5-11.14-10.19-20.4-26.91-31.35-49.86-32.43-3.64-.17-7.1-.45-7.83,4.81-.26,1.88-2.7,3.44-4.07,5.2A76.83,76.83,0,0,0,154.05,51c-2.17,3.7-4.79,6.19-9.32,5.35s-6.63-4-7.29-8.08c-1-6.29-.95-12.64,2.2-18.37,1.51-2.73.91-4.14-1.23-6A77.2,77.2,0,0,0,11.31,66.06c-.37,1.88-.37,3.83-.61,6.6,2.22-1.44,3.44-2.27,4.69-3a22.1,22.1,0,0,1,25.16,1.62c5.17,4.12,7.81,9.62,9.46,15.82,1.56,5.85,3.35,11.64,5,17.36,2.75-.38,4.8-.69,6.85-.94C72.24,102.24,80,107.06,83.32,117c3.75,11.15,1.46,21.17-5.88,30.19-.87,1.06-1.74,2.13-3.12,3.8Zm-69.54,4c10.38.05,22.86-7.47,27.16-16.36,4.74-9.8-.36-19-10.33-18.68-10.73.39-24.25,11-27.13,21.25C37.87,149.26,42.12,154.94,50.43,155Z"/><path d="M170,93.18a24.65,24.65,0,0,1,15.9-21.55A21.24,21.24,0,0,1,209,76.74c5.59,6,5.09,11.42-.9,17a45.94,45.94,0,0,0-8.77,10.52c-3.51,6.16-8.59,8.7-15.19,8s-10.62-5.07-12.59-11.2A64.34,64.34,0,0,1,170,93.18Z"/><path d="M233.68,100.05c3.33-.11,4.46,1.77,4.34,4.8-.17,4.34-3.59,9-6.53,8.84-3.37-.17-7.63-4.52-7.56-7.72S228.64,99.85,233.68,100.05Z"/></g></g></svg>