<svg xmlns="http://www.w3.org/2000/svg" viewBox="0 0 110.28 68.25"><defs><style>.cls-1{fill:#fff;}</style></defs><g id="图层_2" data-name="图层 2"><g id="图层_1-2" data-name="图层 1"><path d="M68,68.25q-5.94-.84-11.88-1.66a14.6,14.6,0,0,0-2.09-.16c-5.49,0-11-.06-16.47,0a71.83,71.83,0,0,0-13.84,1C12.35,69.71,3.48,63.27,1.18,51.64a31.72,31.72,0,0,1,1-17.52c1-2.87,1.13-6.11,1.53-9.19.06-.43-.52-1.08-1-1.42A7,7,0,0,1,3,12.19c1.74-1.2,3.72-1.65,5.56-.45,1.39.91,2.13.44,3-.57a32.5,32.5,0,0,1,16.8-10C40.3-1.76,50.89.93,60.17,8.81c1.06.9,1.79,1.24,3.14.56,2.45-1.23,4.46-.63,6.09,1.47,1.4,1.82,2.06,1.87,3.48.12A8.41,8.41,0,0,1,79.56,7.8c4-.07,6.74,2.46,6.79,6.42a2.88,2.88,0,0,0,1.41,2.64A25.26,25.26,0,0,1,98.68,35.13a4.43,4.43,0,0,0,1.89,3.12c3.19,2.77,7.51,4.37,9.13,8.86s-.36,9.36-5.11,10c-5.65.81-11.07,2-16.13,4.66a11.52,11.52,0,0,1-2.39.65c-1.63.44-3.11.84-4.2,2.52-1.39,2.14-4,2.36-6.33,2.59s-5,.25-7.45.36ZM51.19,64.43c-.74-.68-1.16-1-1.52-1.42a42.08,42.08,0,0,1-4.24-4.64c-4.16-6-5.67-12.93-5.59-20.13a15.75,15.75,0,0,1,2.8-9.58c.9-1.22,2-2.26,3.68-1.87s2.23,1.79,2.5,3.29c.33,1.88.56,3.78.85,5.67,1.1,7.21,7,14,14.83,14A89.68,89.68,0,0,1,75,50.62a9.61,9.61,0,0,1,8.38,8c.16.78.34,1.56.54,2.45,6.19-1.43,11.66-4,16-8.41,4.66-4.74,5.3-11.15-2.6-14.16-3-1.14-3.52-2.71-2.79-5.93.35-1.54.84-3.5.22-4.75C90.38,19.13,83.24,14.46,73.45,14c-1.55-.07-3-.19-3.34,2.05-.11.81-1.15,1.47-1.74,2.22a32.52,32.52,0,0,0-2.63,3.49c-.93,1.58-2,2.64-4,2.28a3.78,3.78,0,0,1-3.11-3.44,11.84,11.84,0,0,1,.94-7.84c.64-1.17.38-1.77-.53-2.57a32.94,32.94,0,0,0-54.24,18c-.15.8-.15,1.63-.26,2.82,1-.62,1.47-1,2-1.3a9.43,9.43,0,0,1,10.74.7,12.1,12.1,0,0,1,4,6.75c.67,2.49,1.43,5,2.13,7.4,1.18-.16,2.05-.29,2.93-.4a8,8,0,0,1,9.16,5.77,12.85,12.85,0,0,1-2.51,12.88l-1.34,1.62Zm-29.67,1.7c4.43,0,9.75-3.18,11.59-7,2-4.18-.16-8.13-4.41-8-4.58.17-10.34,4.69-11.57,9.07C16.16,63.69,18,66.12,21.52,66.13Z"/><path class="cls-1" d="M51.19,64.43H31.71l1.34-1.62a12.85,12.85,0,0,0,2.51-12.88,8,8,0,0,0-9.16-5.77c-.88.11-1.75.24-2.93.4-.7-2.44-1.46-4.91-2.13-7.4a12.1,12.1,0,0,0-4-6.75,9.43,9.43,0,0,0-10.74-.7c-.54.33-1.06.68-2,1.3.11-1.19.11-2,.26-2.82a32.94,32.94,0,0,1,54.24-18c.91.8,1.17,1.4.53,2.57a11.84,11.84,0,0,0-.94,7.84A3.78,3.78,0,0,0,61.76,24c1.93.36,3.05-.7,4-2.28a32.52,32.52,0,0,1,2.63-3.49c.59-.75,1.63-1.41,1.74-2.22.31-2.24,1.79-2.12,3.34-2.05,9.79.46,16.93,5.13,21.28,13.84.62,1.25.13,3.21-.22,4.75-.73,3.22-.21,4.79,2.79,5.93,7.9,3,7.26,9.42,2.6,14.16-4.34,4.42-9.81,7-16,8.41-.2-.89-.38-1.67-.54-2.45a9.61,9.61,0,0,0-8.38-8A89.68,89.68,0,0,0,64.5,49.8c-7.84-.1-13.73-6.84-14.83-14-.29-1.89-.52-3.79-.85-5.67-.27-1.5-.81-2.9-2.5-3.29s-2.78.65-3.68,1.87a15.75,15.75,0,0,0-2.8,9.58c-.08,7.2,1.43,14.09,5.59,20.13A42.08,42.08,0,0,0,49.67,63C50,63.4,50.45,63.75,51.19,64.43ZM72.53,39.76a26.94,26.94,0,0,0,.65,3.36c.84,2.62,2.54,4.49,5.37,4.78A6.23,6.23,0,0,0,85,44.47,19.56,19.56,0,0,1,88.78,40c2.55-2.36,2.77-4.67.38-7.23a9,9,0,0,0-9.84-2.18A10.51,10.51,0,0,0,72.53,39.76Zm27.18,2.93c-2.15-.08-4.12,1.12-4.15,2.53s1.78,3.22,3.22,3.29c1.26.07,2.71-1.92,2.79-3.77C101.62,43.45,101.14,42.65,99.71,42.69Z"/><path class="cls-1" d="M21.52,66.13c-3.55,0-5.36-2.44-4.39-5.88,1.23-4.38,7-8.9,11.57-9.07,4.25-.16,6.43,3.79,4.41,8C31.27,63,26,66.15,21.52,66.13Z"/><path d="M72.53,39.76a10.51,10.51,0,0,1,6.79-9.19,9,9,0,0,1,9.84,2.18c2.39,2.56,2.17,4.87-.38,7.23A19.56,19.56,0,0,0,85,44.47a6.23,6.23,0,0,1-6.49,3.43c-2.83-.29-4.53-2.16-5.37-4.78A26.94,26.94,0,0,1,72.53,39.76Z"/><path d="M99.71,42.69c1.43,0,1.91.76,1.86,2.05-.08,1.85-1.53,3.84-2.79,3.77-1.44-.07-3.26-1.93-3.22-3.29S97.56,42.61,99.71,42.69Z"/></g></g></svg>